<svg xmlns="http://www.w3.org/2000/svg" width="80" height="80" fill="none">
    <path fill="#DE007B" d="M80 80H0L.04 8.75 0 0h80v80Z" />
    <path fill="#fff" fill-rule="evenodd"
        d="M21.41 29.57 14.8 44.66c-4.15-5.98-4.58-13.7-4.61-14.63H5.97c0 .4.14 5.32 2.14 10.79a27.54 27.54 0 0 0 3.9 7.33h5.92l7.35-16.92-3.87-1.66Zm48.44.46c-.23 2.13-1.19 8.97-4.69 14.39L59 29.94c-5.5-.3-8.54 1.94-9.61 3.09-.02-.76-1.16-2.36-1.76-2.73l-3.24 2.2c2.04 1.9 2.04 5 2.04 6.61V48.15h4.09v-9.02c0-2.28 1.42-4.38 5.64-5.1l5.98 14a13.46 13.46 0 0 1-5.88 3.13l1 4.1C63.7 53.7 68.66 48.7 71.61 40.8a43.24 43.24 0 0 0 2.45-10.78h-4.22Zm-44.71 9.3c0-5.17 3.72-9.62 9.56-9.62 5.69 0 9.11 4.04 9.11 9.25 0 .56-.07 1.67-.2 2H29.72c.56 2.6 2.56 4.07 5.39 4.07 2.1 0 3.76-.89 4.94-2.37l3.22 2.37c-1.98 2.52-4.42 3.96-8.39 3.96-5.95 0-9.75-4.19-9.75-9.66Zm9.75-5.62c-2.64 0-4.56 1.4-5.16 3.89h9.64C39 34.88 37.3 33.7 34.9 33.7Z"
        clip-rule="evenodd" />
</svg>